<svg width="128" height="128" viewBox="0 0 128 128" fill="none" xmlns="http://www.w3.org/2000/svg">
  <!-- Background -->
  <rect width="128" height="128" rx="20" fill="#667EEA"/>
  
  <!-- Document -->
  <rect x="24" y="20" width="56" height="76" rx="4" fill="white" stroke="#E5E7EB" stroke-width="2"/>
  
  <!-- Text lines -->
  <rect x="32" y="32" width="40" height="3" rx="1.5" fill="#9CA3AF"/>
  <rect x="32" y="40" width="32" height="3" rx="1.5" fill="#9CA3AF"/>
  <rect x="32" y="48" width="36" height="3" rx="1.5" fill="#9CA3AF"/>
  <rect x="32" y="56" width="28" height="3" rx="1.5" fill="#9CA3AF"/>
  
  <!-- Shield (privacy/security) -->
  <path d="M88 32L96 36V52C96 60 92 66 88 70C84 66 80 60 80 52V36L88 32Z" fill="#10B981" stroke="white" stroke-width="2"/>
  
  <!-- Check mark in shield -->
  <path d="M84 50L87 53L92 46" stroke="white" stroke-width="2" stroke-linecap="round" stroke-linejoin="round"/>
  
  <!-- Magnifying glass -->
  <circle cx="52" cy="72" r="8" fill="none" stroke="#FFD700" stroke-width="3"/>
  <path d="M58 78L65 85" stroke="#FFD700" stroke-width="3" stroke-linecap="round"/>
  
  <!-- Warning indicator -->
  <circle cx="72" cy="24" r="6" fill="#F59E0B"/>
  <path d="M72 21V24M72 27H72.01" stroke="white" stroke-width="1.5" stroke-linecap="round"/>
</svg> 